<svg xmlns="http://www.w3.org/2000/svg" width="48" height="48" viewBox="0 0 48 48">
  <defs>
    <style>
      .cls-1 {
        fill: #ff5c72;
        fill-rule: evenodd;
      }
    </style>
  </defs>
  <path id="icon" class="cls-1" d="M496.649,3155.93a1.94,1.94,0,0,0-1.939,1.94v11.78a2.476,2.476,0,0,1-2.473,2.47H461.351a2.475,2.475,0,0,1-2.473-2.47v-30.89a2.475,2.475,0,0,1,2.473-2.47h11.781a1.94,1.94,0,0,0,0-3.88H461.351a6.359,6.359,0,0,0-6.351,6.35v30.89a6.359,6.359,0,0,0,6.351,6.35h30.886a6.359,6.359,0,0,0,6.351-6.35v-11.78A1.94,1.94,0,0,0,496.649,3155.93Zm5.783-18.54-8.824-8.82a1.935,1.935,0,0,0-2.743,0l-22.06,22.06a1.919,1.919,0,0,0-.568,1.37v8.82a1.94,1.94,0,0,0,1.939,1.94H479a1.948,1.948,0,0,0,1.371-.56l22.061-22.07A1.936,1.936,0,0,0,502.432,3137.39ZM478.2,3158.88h-6.082v-6.08l20.122-20.12,6.082,6.08Z" transform="translate(-455 -3128)"/>
</svg>
