<svg id="icon" xmlns="http://www.w3.org/2000/svg" width="120" height="120" viewBox="0 0 120 120">
  <rect id="bg" class="svg-bg" width="120" height="120"/>
  <path id="circle" class="svg-light-gray" d="M8,72a2,2,0,0,1,2,2V86a2,2,0,0,1-4,0V74A2,2,0,0,1,8,72ZM2,78H14a2,2,0,0,1,0,4H2A2,2,0,0,1,2,78ZM112,92a2,2,0,0,1,2,2v12a2,2,0,0,1-4,0V94A2,2,0,0,1,112,92Zm-6,6h12a2,2,0,0,1,0,4H106A2,2,0,0,1,106,98Zm-6-82a2,2,0,0,1,2,2V30a2,2,0,0,1-4,0V18A2,2,0,0,1,100,16Zm-6,6h12a2,2,0,0,1,0,4H94A2,2,0,0,1,94,22ZM60,20A40,40,0,1,1,20,60,40,40,0,0,1,60,20Z"/>
  <path id="headphones" class="svg-dark-gray" d="M83,71a4,4,0,0,1-4-4V59h0a19,19,0,0,0-38,0V71a8,8,0,0,0,8,8h5.779A2.981,2.981,0,0,1,57,78h6a3,3,0,0,1,0,6H57a2.981,2.981,0,0,1-2.221-1H47A10,10,0,0,1,37,73V71a4,4,0,0,1-4-4V61a4,4,0,0,1,4-4h0.1a22.985,22.985,0,0,1,45.8,0H83a4,4,0,0,1,4,4v6A4,4,0,0,1,83,71Z"/>
  <text id="_24h" data-name="24h" class="svg-element svg-text" x="60.5" y="60.25">24h</text>
</svg>
