<svg xmlns="http://www.w3.org/2000/svg" width="42" height="48" viewBox="0 0 42 48">
  <defs>
    <style>
      .cls-1 {
        fill: #ff5c72;
        fill-rule: evenodd;
      }
    </style>
  </defs>
  <path id="icon" class="cls-1" d="M1019.32,3629.62a4.6,4.6,0,0,0-1.57-1.56h0l-32.688-19.41h-0.01a4.7,4.7,0,0,0-6.4,1.61,4.616,4.616,0,0,0-.653,2.36h0v38.76a4.649,4.649,0,0,0,4.671,4.62h0a4.637,4.637,0,0,0,2.381-.65h0.009l32.689-19.38v-0.01A4.578,4.578,0,0,0,1019.32,3629.62Zm-3.6,3.02-32.67,19.38a0.758,0.758,0,0,1-.91-0.12,0.715,0.715,0,0,1-.219-0.52v-38.76h0a0.735,0.735,0,0,1,.1-0.38,0.75,0.75,0,0,1,.459-0.34,0.721,0.721,0,0,1,.565.08l32.67,19.4a0.667,0.667,0,0,1,.25.25A0.725,0.725,0,0,1,1015.72,3632.64Z" transform="translate(-978 -3608)"/>
</svg>
