<svg id="icon" xmlns="http://www.w3.org/2000/svg" width="120" height="120" viewBox="0 0 120 120">
  <rect id="bg" class="svg-bg" width="120" height="120"/>
  <path id="circle" class="svg-light-gray" d="M112,20a2,2,0,0,1,2,2V34a2,2,0,0,1-4,0V22A2,2,0,0,1,112,20Zm-6,6h12a2,2,0,0,1,0,4H106A2,2,0,0,1,106,26ZM8,16a2,2,0,0,1,2,2V30a2,2,0,0,1-4,0V18A2,2,0,0,1,8,16ZM2,22H14a2,2,0,0,1,0,4H2A2,2,0,0,1,2,22ZM20,92a2,2,0,0,1,2,2v12a2,2,0,0,1-4,0V94A2,2,0,0,1,20,92Zm-6,6H26a2,2,0,0,1,0,4H14A2,2,0,0,1,14,98ZM60,20A40,40,0,1,1,20,60,40,40,0,0,1,60,20Z"/>
  <g id="login">
    <rect id="button" class="svg-element" x="51" y="84" width="18" height="6" rx="3" ry="3"/>
    <path id="input" class="svg-gray" d="M41,72H79a3,3,0,0,1,0,6H41A3,3,0,0,1,41,72Zm0-10H79a3,3,0,0,1,0,6H41A3,3,0,0,1,41,62Z"/>
    <path id="user" class="svg-dark-gray" d="M60,32a5,5,0,1,1-5,5A5,5,0,0,1,60,32ZM58,42h4a7,7,0,0,1,7,7v3H51V49A7,7,0,0,1,58,42Z"/>
  </g>
</svg>
