<svg xmlns="http://www.w3.org/2000/svg" width="48" height="48" viewBox="0 0 48 48">
  <defs>
    <style>
      .cls-1 {
        fill: #ff5c72;
        fill-rule: evenodd;
      }
    </style>
  </defs>
  <path id="icon" class="cls-1" d="M495.623,4102.78a1.367,1.367,0,0,1,1.246-.83h0.181a5.95,5.95,0,1,0,0-11.9h-0.333a1.379,1.379,0,0,1-1.136-.61,1.979,1.979,0,0,0-.126-0.4,1.372,1.372,0,0,1,.268-1.51l0.106-.1s0.006-.01.009-0.01a5.952,5.952,0,0,0,0-8.41s-0.006-.01-0.009-0.01a5.922,5.922,0,0,0-4.2-1.74h0a5.885,5.885,0,0,0-4.2,1.75l-0.111.11a1.354,1.354,0,0,1-1.506.26H485.78a1.376,1.376,0,0,1-.83-1.25v-0.18a5.95,5.95,0,0,0-11.9,0v0.33a1.368,1.368,0,0,1-.612,1.14,2.688,2.688,0,0,0-.4.12,1.354,1.354,0,0,1-1.506-.26l-0.115-.12a5.918,5.918,0,0,0-4.2-1.74h0a5.951,5.951,0,0,0-4.206,10.16l0.112,0.11a1.375,1.375,0,0,1,.268,1.51c-0.017.04-.032,0.08-0.046,0.11a1.36,1.36,0,0,1-1.236.9H460.95a5.95,5.95,0,0,0,0,11.9h0.333a1.368,1.368,0,0,1,1.254.83,0.167,0.167,0,0,1,.008.02,1.354,1.354,0,0,1-.268,1.5l-0.111.12h-0.008a5.95,5.95,0,0,0,.009,8.41c0,0.01.005,0.01,0.008,0.01a5.95,5.95,0,0,0,8.409-.01l0.111-.11a1.373,1.373,0,0,1,1.5-.27,0.542,0.542,0,0,0,.114.05,1.362,1.362,0,0,1,.9,1.24v0.15a5.95,5.95,0,1,0,11.9,0v-0.33a1.38,1.38,0,0,1,.831-1.26,0.019,0.019,0,0,0,.019-0.01,1.373,1.373,0,0,1,1.5.27l0.115,0.12a5.922,5.922,0,0,0,4.205,1.74h0a5.953,5.953,0,0,0,4.205-10.16l-0.111-.12a1.356,1.356,0,0,1-.268-1.5C495.618,4102.79,495.62,4102.79,495.623,4102.78Zm-2.506,4.24c0,0.01.01,0.01,0.015,0.02l0.121,0.12a2.076,2.076,0,0,1-1.467,3.54h0a2.077,2.077,0,0,1-1.467-.61l-0.12-.12s-0.01-.01-0.016-0.01a5.271,5.271,0,0,0-8.95,3.75v0.34a2.072,2.072,0,0,1-4.144,0v-0.18c0-.02,0-0.03,0-0.05a5.406,5.406,0,0,0-9.11-3.7s-0.01.01-.015,0.01l-0.121.12a2.071,2.071,0,0,1-2.931,0H464.9a2.076,2.076,0,0,1,0-2.93s0.005,0,.007-0.01l0.116-.11c0-.01.01-0.01,0.015-0.02a5.274,5.274,0,0,0-3.752-8.95H460.95a2.07,2.07,0,1,1,0-4.14h0.226a5.41,5.41,0,0,0,3.707-9.11c0-.01-0.01-0.01-0.015-0.02l-0.121-.12a2.076,2.076,0,0,1,1.466-3.54h0a2.032,2.032,0,0,1,1.466.61l0.121,0.12s0.01,0.01.015,0.01a5.2,5.2,0,0,0,5.413,1.2,1.87,1.87,0,0,0,.517-0.14,5.244,5.244,0,0,0,3.181-4.81v-0.34a2.072,2.072,0,0,1,4.144,0v0.19a5.271,5.271,0,0,0,8.95,3.74s0.01-.01.016-0.01l0.121-.12a2.024,2.024,0,0,1,1.465-.61h0a2.052,2.052,0,0,1,1.461.6s0,0.01.006,0.01a2.049,2.049,0,0,1,.608,1.46,2.079,2.079,0,0,1-.6,1.47h0l-0.121.12c0,0.01-.01.01-0.015,0.02a5.215,5.215,0,0,0-1.2,5.41,1.986,1.986,0,0,0,.141.52,5.257,5.257,0,0,0,4.811,3.18h0.341a2.07,2.07,0,1,1,0,4.14h-0.188A5.274,5.274,0,0,0,493.117,4107.02ZM479,4088.04a7.96,7.96,0,1,0,7.955,7.96A7.966,7.966,0,0,0,479,4088.04Zm0,12.04a4.08,4.08,0,1,1,4.077-4.08A4.083,4.083,0,0,1,479,4100.08Z" transform="translate(-455 -4072)"/>
</svg>
