<svg id="icon" xmlns="http://www.w3.org/2000/svg" width="120" height="120" viewBox="0 0 120 120">
  <rect id="bg" class="svg-bg" width="120" height="120"/>
  <path id="circle" class="svg-light-gray" d="M112,36a2,2,0,0,1,2,2V50a2,2,0,0,1-4,0V38A2,2,0,0,1,112,36Zm-6,6h12a2,2,0,0,1,0,4H106A2,2,0,0,1,106,42ZM8,8a2,2,0,0,1,2,2V22a2,2,0,0,1-4,0V10A2,2,0,0,1,8,8ZM2,14H14a2,2,0,0,1,0,4H2A2,2,0,0,1,2,14ZM20,92a2,2,0,0,1,2,2v12a2,2,0,0,1-4,0V94A2,2,0,0,1,20,92Zm-6,6H26a2,2,0,0,1,0,4H14A2,2,0,0,1,14,98ZM60,20A40,40,0,1,1,20,60,40,40,0,0,1,60,20Z"/>
  <g id="shield">
    <path id="shield_light" class="svg-light" d="M60.752,81.9A2.866,2.866,0,0,1,60,82V16a1.975,1.975,0,0,1,1.18.393c3.37,2.5,13.594,9.343,26.121,10.54A3,3,0,0,1,89.993,29.9C90.138,39.995,88.551,74.278,60.752,81.9Z"/>
    <path id="shield_dark" class="svg-gray" d="M59.248,81.9A2.867,2.867,0,0,0,60,82V16a1.975,1.975,0,0,0-1.18.393c-3.37,2.5-13.594,9.343-26.121,10.54A3,3,0,0,0,30.007,29.9C29.862,39.995,31.449,74.278,59.248,81.9Z"/>
  </g>
  <g id="lock">
    <path id="lock-2" data-name="lock" class="svg-element" d="M70,75.25H88a4,4,0,0,1,4,4V92a4,4,0,0,1-4,4H70a4,4,0,0,1-4-4V79.25A4,4,0,0,1,70,75.25Zm13.522,0v-4.61c0-2.864-1.712-5.186-4.522-5.186s-4.522,2.322-4.522,5.186v4.61H71.087V68.915A6.85,6.85,0,0,1,77.87,62H80.13a6.85,6.85,0,0,1,6.783,6.915v6.339H83.522Z"/>
    <path id="hole" class="svg-white" d="M79,78.75A3.453,3.453,0,1,1,75.594,82.2,3.43,3.43,0,0,1,79,78.75ZM77.3,82.17H80.7l1.13,8.068H76.174Z"/>
  </g>
</svg>
