<svg id="icon" xmlns="http://www.w3.org/2000/svg" width="120" height="120" viewBox="0 0 120 120">
  <rect id="bg" class="svg-bg" width="120" height="120"/>
  <path id="circle" class="svg-light-gray" d="M90,110h12a2,2,0,0,1,0,4H90A2,2,0,0,1,90,110Zm6-6a2,2,0,0,1,2,2v12a2,2,0,0,1-4,0V106A2,2,0,0,1,96,104ZM92,8h12a2,2,0,0,1,0,4H92A2,2,0,0,1,92,8Zm6-6a2,2,0,0,1,2,2V16a2,2,0,0,1-4,0V4A2,2,0,0,1,98,2ZM16,20H28a2,2,0,0,1,0,4H16A2,2,0,0,1,16,20Zm6-6a2,2,0,0,1,2,2V28a2,2,0,0,1-4,0V16A2,2,0,0,1,22,14Zm38,6A40,40,0,1,1,20,60,40,40,0,0,1,60,20Z"/>
  <g id="phone">
    <rect id="Прямоугольник_скругл._углы_2_копия_2" data-name="Прямоугольник, скругл. углы 2 копия 2" class="svg-dark-gray" x="38" y="20" width="44" height="80" rx="4" ry="4"/>
    <path id="Эллипс_2_копия" data-name="Эллипс 2 копия" class="svg-white" d="M42,30H78a2,2,0,0,1,2,2V86a2,2,0,0,1-2,2H42a2,2,0,0,1-2-2V32A2,2,0,0,1,42,30ZM60.5,91.25a2.5,2.5,0,1,1-2.5,2.5A2.5,2.5,0,0,1,60.5,91.25Z"/>
  </g>
  <g id="UI">
    <rect id="image" class="svg-light-gray" x="44" y="34" width="32" height="14" rx="2" ry="2"/>
    <path id="text" class="svg-light" d="M46,52h4a2,2,0,0,1,0,4H46A2,2,0,0,1,46,52Zm0,8h4a2,2,0,0,1,0,4H46A2,2,0,0,1,46,60Z"/>
    <path id="text-2" data-name="text" class="svg-gray" d="M56,52H74a2,2,0,0,1,0,4H56A2,2,0,0,1,56,52Zm0,8H74a2,2,0,0,1,0,4H56A2,2,0,0,1,56,60Z"/>
    <path id="text-3" data-name="text" class="svg-dark-gray" d="M66,68h8a2,2,0,0,1,0,4H66A2,2,0,0,1,66,68Zm0,8h8a2,2,0,0,1,0,4H66A2,2,0,0,1,66,76Z"/>
    <path id="text-4" data-name="text" class="svg-element" d="M52,68h8a2,2,0,0,1,0,4H52A2,2,0,0,1,52,68Zm0,8h8a2,2,0,0,1,0,4H52A2,2,0,0,1,52,76Z"/>
  </g>
</svg>
