<svg xmlns="http://www.w3.org/2000/svg" width="48" height="48" viewBox="0 0 48 48">
  <defs>
    <style>
      .cls-1 {
        fill: #ff5c72;
        fill-rule: evenodd;
      }
    </style>
  </defs>
  <path id="icon" class="cls-1" d="M1016.16,4592H981.841a6.849,6.849,0,0,0-6.841,6.84v39.22a1.937,1.937,0,0,0,3.31,1.37l9.237-9.24h28.613a6.843,6.843,0,0,0,6.84-6.84v-24.51A6.85,6.85,0,0,0,1016.16,4592Zm2.96,31.35a2.968,2.968,0,0,1-2.96,2.97H986.744a1.946,1.946,0,0,0-1.371.56l-6.5,6.5v-34.54a2.966,2.966,0,0,1,2.963-2.96h34.319a2.966,2.966,0,0,1,2.96,2.96v24.51Z" transform="translate(-975 -4592)"/>
</svg>
